<?xml version="1.0" encoding="UTF-8"?>
<svg width="389px" height="167px" viewBox="0 0 389 167" version="1.1" xmlns="http://www.w3.org/2000/svg" xmlns:xlink="http://www.w3.org/1999/xlink">
    <title>Combined Shape</title>
    <g id="Page-1" stroke="none" stroke-width="1" fill="none" fill-rule="evenodd">
        <g id="Artboard---Mobile" fill="#FFFFFF">
            <path d="M268,123 L228,123 L228,139 L268,139 L268,123 Z M249,91 L99,91 L99,107 L249,107 L249,91 Z M373,56 L172,56 L172,72 L373,72 L373,56 Z M231,24 L112,24 L112,40 L231,40 L231,24 Z M0,0 L389,0 L389,91 L265,91 L265,107 L389,107 L389,123 L284,123 L284,139 L389,139 L389,167 L0,167 L0,139 L212,139 L212,123 L0,123 L0,107 L83,107 L83,91 L0,91 L0,72 L158,72 L158,56 L0,56 L0,24 L16,24 L16,8 L0,8 L0,0 Z M112,8 L32,8 L32,24 L112,24 L112,8 Z" id="Combined-Shape"></path>
        </g>
    </g>
</svg>