<?xml version="1.0" encoding="UTF-8"?>
<svg width="1209px" height="264px" viewBox="0 0 1209 264" version="1.1" xmlns="http://www.w3.org/2000/svg" xmlns:xlink="http://www.w3.org/1999/xlink">
    <title>Combined Shape</title>
    <g id="Page-1" stroke="none" stroke-width="1" fill="none" fill-rule="evenodd">
        <g id="Artboard---Desktop" transform="translate(0.000000, -247.000000)" fill="#FFFFFF">
            <path d="M1209,247 L1209,511 L0,511 L0,247 L1209,247 Z M736,473 L451,473 L451,499 L736,499 L736,473 Z M1127,470 L1069,470 L1069,490 L1127,490 L1127,470 Z M204,455 L91,455 L91,475 L204,475 L204,455 Z M1185,450 L1127,450 L1127,470 L1185,470 L1185,450 Z M557,429 L451,429 L451,455 L557,455 L557,429 Z M867,429 L574,429 L574,455 L867,455 L867,429 Z M1127,430 L1089,430 L1089,450 L1127,450 L1127,430 Z M1205,430 L1185,430 L1185,450 L1205,450 L1205,430 Z M696,387 L312,387 L312,413 L696,413 L696,387 Z M533,343 L312,343 L312,369 L533,369 L533,343 Z M891,343 L550,343 L550,369 L891,369 L891,343 Z M742,299 L358,299 L358,325 L742,325 L742,299 Z M922,299 L759,299 L759,325 L922,325 L922,299 Z M358,255 L312,255 L312,281 L358,281 L358,255 Z" id="Combined-Shape"></path>
        </g>
    </g>
</svg>