<?xml version="1.0" encoding="UTF-8"?>
<svg width="1209px" height="247px" viewBox="0 0 1209 247" version="1.1" xmlns="http://www.w3.org/2000/svg" xmlns:xlink="http://www.w3.org/1999/xlink">
    <title>Combined Shape</title>
    <g id="Page-1" stroke="none" stroke-width="1" fill="none" fill-rule="evenodd">
        <g id="Artboard" fill="#FFFFFF">
            <path d="M1209,0 L1209,247 L0,247 L0,0 L1209,0 Z M471,209 L311,209 L311,236 L471,236 L471,209 Z M553,209 L486,209 L486,236 L553,236 L553,209 Z M919,209 L570,209 L570,236 L919,236 L919,209 Z M581,166 L360,166 L360,193 L581,193 L581,166 Z M934,166 L600,166 L600,193 L934,193 L934,166 Z M667,123 L311,123 L311,150 L667,150 L667,123 Z M895,123 L694,123 L694,150 L895,150 L895,123 Z M575,80 L337,80 L337,107 L575,107 L575,80 Z M821,80 L592,80 L592,107 L821,107 L821,80 Z M25,57 L5,57 L5,77 L25,77 L25,57 Z M1021,57 L983,57 L983,77 L1021,77 L1021,57 Z M700,37 L499,37 L499,64 L700,64 L700,37 Z M62,37 L25,37 L25,57 L62,57 L62,37 Z M1079,37 L1021,37 L1021,57 L1079,57 L1079,37 Z M337,10 L311,10 L311,37 L337,37 L337,10 Z M499,10 L353,10 L353,37 L499,37 L499,10 Z" id="Combined-Shape"></path>
        </g>
    </g>
</svg>