<?xml version="1.0" encoding="UTF-8"?>
<svg width="389px" height="88px" viewBox="0 0 389 88" version="1.1" xmlns="http://www.w3.org/2000/svg" xmlns:xlink="http://www.w3.org/1999/xlink">
    <title>Combined Shape</title>
    <g id="Page-1" stroke="none" stroke-width="1" fill="none" fill-rule="evenodd">
        <g id="Artboard---Mobile" transform="translate(0.000000, -458.000000)" fill="#FFFFFF">
            <path d="M389,458 L389,473 L353,473 L353,489 L389,489 L389,546 L0,546 L0,537 L65,537 L65,521 L0,521 L0,489 L109,489 L109,473 L0,473 L0,458 L389,458 Z M140,505 L65,505 L65,521 L140,521 L140,505 Z M148,473 L125,473 L125,489 L148,489 L148,473 Z M337,473 L164,473 L164,489 L337,489 L337,473 Z" id="Combined-Shape"></path>
        </g>
    </g>
</svg>