<?xml version="1.0" encoding="UTF-8"?>
<svg width="389px" height="291px" viewBox="0 0 389 291" version="1.1" xmlns="http://www.w3.org/2000/svg" xmlns:xlink="http://www.w3.org/1999/xlink">
    <title>Combined Shape</title>
    <g id="Page-1" stroke="none" stroke-width="1" fill="none" fill-rule="evenodd">
        <g id="Artboard---Mobile" transform="translate(0.000000, -167.000000)" fill="#FFFFFF">
            <path d="M255,458 L255,442 L109,442 L109,458 L0,458 L0,363 L228,363 L228,347 L0,347 L0,331 L131,331 L131,315 L0,315 L0,267 L161,267 L161,251 L0,251 L0,235 L95,235 L95,219 L0,219 L0,191 L24,191 L24,175 L0,175 L0,167 L389,167 L389,219 L167,219 L167,235 L389,235 L389,251 L179,251 L179,267 L389,267 L389,283 L291,283 L291,299 L389,299 L389,315 L161,315 L161,331 L389,331 L389,379 L212,379 L212,395 L389,395 L389,442 L271,442 L271,458 L255,458 Z M281,411 L162,411 L162,427 L281,427 L281,411 Z M337,411 L297,411 L297,427 L337,427 L337,411 Z M198,379 L109,379 L109,395 L198,395 L198,379 Z M278,283 L47,283 L47,299 L278,299 L278,283 Z M151,219 L111,219 L111,235 L151,235 L151,219 Z" id="Combined-Shape"></path>
        </g>
    </g>
</svg>