<svg width="91" height="91" viewBox="0 0 91 91" fill="none" xmlns="http://www.w3.org/2000/svg">
    <path d="M41.3636 49.643H33.0909V57.9157H41.3636V49.643Z" fill="black"/>
    <path d="M24.8182 82.7273H16.5455V91H24.8182V82.7273Z" fill="black"/>
    <path d="M24.8182 74.4545H16.5455V82.7273H24.8182V74.4545Z" fill="black"/>
    <path d="M24.8182 66.1818H16.5455V74.4545H24.8182V66.1818Z" fill="black"/>
    <path d="M33.0909 49.6364H0V57.9091H33.0909V49.6364Z" fill="black"/>
    <path d="M74.4545 74.4545H66.1818V82.7273H74.4545V74.4545Z" fill="black"/>
    <path d="M82.7273 74.4545H74.4545V82.7273H82.7273V74.4545Z" fill="black"/>
    <path d="M91 74.4545H82.7273V82.7273H91V74.4545Z" fill="black"/>
    <path d="M91 82.7273H82.7273V91H91V82.7273Z" fill="black"/>
    <path d="M57.9091 82.7273H49.6364V91H57.9091V82.7273Z" fill="black"/>
    <path d="M66.1818 74.4545H57.9091V82.7273H66.1818V74.4545Z" fill="black"/>
    <path d="M57.9091 74.4545H49.6364V82.7273H57.9091V74.4545Z" fill="black"/>
    <path d="M66.1818 66.1818H57.9091V74.4545H66.1818V66.1818Z" fill="black"/>
    <path d="M82.7273 66.1818H74.4545V74.4545H82.7273V66.1818Z" fill="black"/>
    <path d="M66.1818 57.9091H57.9091V66.1818H66.1818V57.9091Z" fill="black"/>
    <path d="M74.4545 49.6364H66.1818V57.9091H74.4545V49.6364Z" fill="black"/>
    <path d="M82.7273 57.9091H74.4545V66.1818H82.7273V57.9091Z" fill="black"/>
    <path d="M82.7273 0H57.9091V8.27273H82.7273V0Z" fill="black"/>
    <path d="M57.9091 33.0909H49.6364V41.3636H57.9091V33.0909Z" fill="black"/>
    <path d="M82.7273 16.5455H66.1818V24.8182H82.7273V16.5455Z" fill="black"/>
    <path d="M57.9091 8.27273H49.6364V16.5455H57.9091V8.27273Z" fill="black"/>
    <path d="M57.9091 16.5455H49.6364V24.8182H57.9091V16.5455Z" fill="black"/>
    <path d="M66.1818 24.8182H57.9091V33.0909H66.1818V24.8182Z" fill="black"/>
    <path d="M57.9091 24.8182H49.6364V33.0909H57.9091V24.8182Z" fill="black"/>
    <path d="M91 24.8182H82.7273V41.3636H91V24.8182Z" fill="black"/>
    <path d="M91 8.27273H82.7273V24.8182H91V8.27273Z" fill="black"/>
    <path d="M33.0909 0H8.27273V8.27273H33.0909V0Z" fill="black"/>
    <path d="M16.5455 33.0909H8.27273V41.3636H16.5455V33.0909Z" fill="black"/>
    <path d="M8.27273 0H0V41.3636L8.27273 41.3636V0Z" fill="black"/>
    <path d="M41.3636 16.5455H33.0909V24.8182H41.3636V16.5455Z" fill="black"/>
    <path d="M33.0909 24.8182H24.8182V33.0909H33.0909V24.8182Z" fill="black"/>
    <path d="M41.3636 8.27273H33.0909V16.5455H41.3636V8.27273Z" fill="black"/>
    <path d="M24.8182 33.0909H16.5455V41.3636H24.8182V33.0909Z" fill="black"/>
</svg>