<svg width="42" height="64" viewBox="0 0 42 64" fill="none" xmlns="http://www.w3.org/2000/svg">
<g clip-path="url(#clip0_792_1293)">
<path d="M18.7795 45.2237H15.0236V48.9796H18.7795V45.2237Z" fill="#FF0037"/>
<path d="M11.2677 60.2441H7.51182V64H11.2677V60.2441Z" fill="#FF0037"/>
<path d="M11.2677 56.4882H7.51182V60.2441H11.2677V56.4882Z" fill="#FF0037"/>
<path d="M11.2677 52.7323H7.51182V56.4882H11.2677V52.7323Z" fill="#FF0037"/>
<path d="M15.0235 45.2206H0V48.9764H15.0235V45.2206Z" fill="#FF0037"/>
<path d="M33.8032 56.4882H30.0473V60.2441H33.8032V56.4882Z" fill="#FF0037"/>
<path d="M37.5589 56.4882H33.8032V60.2441H37.5589V56.4882Z" fill="#FF0037"/>
<path d="M41.3148 56.4882H37.5589V60.2441H41.3148V56.4882Z" fill="#FF0037"/>
<path d="M41.3148 60.2441H37.5589L37.5589 64H41.3148V60.2441Z" fill="#FF0037"/>
<path d="M26.2913 60.2441H22.5355V64H26.2913V60.2441Z" fill="#FF0037"/>
<path d="M30.0473 56.4882H26.2914L26.2913 60.2441L30.0473 60.2441V56.4882Z" fill="#FF0037"/>
<path d="M26.2914 56.4882H22.5355V60.2441H26.2913L26.2914 56.4882Z" fill="#FF0037"/>
<path d="M30.0473 52.7323H26.2914V56.4882H30.0473L30.0473 52.7323Z" fill="#FF0037"/>
<path d="M37.5589 52.7323H33.803L33.8032 56.4882H37.5589V52.7323Z" fill="#FF0037"/>
<path d="M30.0473 48.9764H26.2914V52.7323H30.0473V48.9764Z" fill="#FF0037"/>
<path d="M33.8032 45.2206H30.0473L30.0473 48.9764L33.8032 48.9764V45.2206Z" fill="#FF0037"/>
<path d="M37.5589 48.9764L33.8032 48.9764L33.803 52.7323H37.5589V48.9764Z" fill="#FF0037"/>
<path d="M37.559 22.6853H26.2914V26.4412H37.559V22.6853Z" fill="#FF0037"/>
<path d="M26.2913 37.7088H22.5355V41.4647H26.2913V37.7088Z" fill="#FF0037"/>
<path d="M37.559 30.197H30.0473V33.9529H37.559V30.197Z" fill="#FF0037"/>
<path d="M26.2914 26.4412L22.5355 26.4412V30.1971H26.2913L26.2914 26.4412Z" fill="#FF0037"/>
<path d="M26.2913 30.1971H22.5355V33.9529H26.2913V30.1971Z" fill="#FF0037"/>
<path d="M30.0473 33.9529H26.2913V37.7088L30.0473 37.7088L30.0473 33.9529Z" fill="#FF0037"/>
<path d="M26.2913 33.9529H22.5355V37.7088H26.2913V33.9529Z" fill="#FF0037"/>
<path d="M41.3148 33.9529L37.559 33.9529L37.5589 41.4647H41.3148V33.9529Z" fill="#FF0037"/>
<path d="M41.3148 26.4412L37.559 26.4412L37.559 33.9529L41.3148 33.9529V26.4412Z" fill="#FF0037"/>
<path d="M15.0235 22.6853H3.75591V26.4412H15.0235V22.6853Z" fill="#FF0037"/>
<path d="M7.51178 37.7088H3.75591V41.4647H7.51178V37.7088Z" fill="#FF0037"/>
<path d="M3.75591 22.6853L0 22.6854V41.4647L3.75591 41.4647V22.6853Z" fill="#FF0037"/>
<path d="M18.7795 30.197H15.0236V33.9529H18.7795V30.197Z" fill="#FF0037"/>
<path d="M15.0236 33.9529L11.2677 33.9529V37.7088H15.0236L15.0236 33.9529Z" fill="#FF0037"/>
<path d="M18.7795 26.4412L15.0235 26.4412L15.0236 30.197H18.7795V26.4412Z" fill="#FF0037"/>
<path d="M11.2677 37.7088L7.51178 37.7088V41.4647H11.2677L11.2677 37.7088Z" fill="#FF0037"/>
<g style="mix-blend-mode:difference">
<path d="M7.51178 0H3.75591V3.75587H7.51178V0Z" fill="black"/>
<path d="M3.75591 0H0V3.75587H3.75591V0Z" fill="black"/>
<path d="M11.2677 0H7.51178V3.75587H11.2677V0Z" fill="black"/>
<path d="M15.0236 0H11.2677V3.75587H15.0236V0Z" fill="black"/>
<path d="M7.51178 15.0236H3.75591V18.7795H7.51178V15.0236Z" fill="black"/>
<path d="M3.75587 7.51182H0V18.7794L3.75591 18.7795L3.75587 7.51182Z" fill="black"/>
<path d="M18.7795 3.75591L15.0236 3.75587L15.0236 7.51178H18.7795V3.75591Z" fill="black"/>
<path d="M18.7795 11.2677H15.0236V15.0236H18.7795V11.2677Z" fill="black"/>
<path d="M18.7795 7.51178H15.0236V11.2677H18.7795V7.51178Z" fill="black"/>
<path d="M15.0236 15.0236L11.2677 15.0236V18.7795H15.0236L15.0236 15.0236Z" fill="black"/>
<path d="M15.0236 3.75587H11.2677L11.2677 7.51178H15.0236L15.0236 3.75587Z" fill="black"/>
<path d="M11.2677 15.0236H7.51178V18.7795H11.2677V15.0236Z" fill="black"/>
<path d="M33.8032 11.2677H30.0473V15.0236H33.8032V11.2677Z" fill="black"/>
<path d="M37.5589 11.2677H33.8032V15.0236H37.5589V11.2677Z" fill="black"/>
<path d="M30.0473 11.2677H26.2914V15.0236H30.0473V11.2677Z" fill="black"/>
<path d="M26.2913 7.51182H22.5355V11.2677L26.2914 11.2677L26.2913 7.51182Z" fill="black"/>
<path d="M30.0473 3.75591H26.2914L26.2913 7.51182L30.0473 7.51178V3.75591Z" fill="black"/>
<path d="M41.3148 0H37.5589V18.7793H41.3148V0Z" fill="black"/>
<path d="M33.8032 0H30.0473L30.0473 3.75591L33.8032 3.75587V0Z" fill="black"/>
</g>
</g>
<defs>
<clipPath id="clip0_792_1293">
<rect width="41.3148" height="64" fill="black"/>
</clipPath>
</defs>
</svg>
