<svg width="42" height="64" viewBox="0 0 42 64" fill="none" xmlns="http://www.w3.org/2000/svg">
<g clip-path="url(#clip0_1004_1315)">
<path d="M18.7795 45.224H15.0236V48.9798H18.7795V45.224Z" fill="#FF0037"/>
<path d="M11.2677 60.2443H7.51182V64.0002H11.2677V60.2443Z" fill="#FF0037"/>
<path d="M11.2677 56.4884H7.51182V60.2443H11.2677V56.4884Z" fill="#FF0037"/>
<path d="M11.2677 52.7326H7.51182V56.4884H11.2677V52.7326Z" fill="#FF0037"/>
<path d="M15.0235 45.2208H0V48.9767H15.0235V45.2208Z" fill="#FF0037"/>
<path d="M33.8032 56.4884H30.0473V60.2443H33.8032V56.4884Z" fill="#FF0037"/>
<path d="M37.5589 56.4884H33.8032V60.2443H37.5589V56.4884Z" fill="#FF0037"/>
<path d="M41.3148 56.4884H37.5589V60.2443H41.3148V56.4884Z" fill="#FF0037"/>
<path d="M41.3148 60.2443H37.5589L37.5589 64.0002H41.3148V60.2443Z" fill="#FF0037"/>
<path d="M26.2913 60.2443H22.5355V64.0002H26.2913V60.2443Z" fill="#FF0037"/>
<path d="M30.0473 56.4884H26.2914L26.2913 60.2443L30.0473 60.2443V56.4884Z" fill="#FF0037"/>
<path d="M26.2914 56.4884H22.5355V60.2443H26.2913L26.2914 56.4884Z" fill="#FF0037"/>
<path d="M30.0473 52.7326H26.2914V56.4884H30.0473L30.0473 52.7326Z" fill="#FF0037"/>
<path d="M37.5589 52.7326H33.803L33.8032 56.4884H37.5589V52.7326Z" fill="#FF0037"/>
<path d="M30.0473 48.9766H26.2914V52.7326H30.0473V48.9766Z" fill="#FF0037"/>
<path d="M33.8032 45.2208H30.0473L30.0473 48.9766L33.8032 48.9767V45.2208Z" fill="#FF0037"/>
<path d="M37.5589 48.9766L33.8032 48.9767L33.803 52.7326H37.5589V48.9766Z" fill="#FF0037"/>
<path d="M37.559 22.6855H26.2914V26.4414H37.559V22.6855Z" fill="#FF0037"/>
<path d="M26.2913 37.7091H22.5355V41.465H26.2913V37.7091Z" fill="#FF0037"/>
<path d="M37.559 30.1973H30.0473V33.9531H37.559V30.1973Z" fill="#FF0037"/>
<path d="M26.2914 26.4414L22.5355 26.4415V30.1973H26.2913L26.2914 26.4414Z" fill="#FF0037"/>
<path d="M26.2913 30.1973H22.5355V33.9531H26.2913V30.1973Z" fill="#FF0037"/>
<path d="M30.0473 33.9531H26.2913V37.7091L30.0473 37.709L30.0473 33.9531Z" fill="#FF0037"/>
<path d="M26.2913 33.9531H22.5355V37.7091H26.2913V33.9531Z" fill="#FF0037"/>
<path d="M41.3148 33.9532L37.559 33.9531L37.5589 41.4649H41.3148V33.9532Z" fill="#FF0037"/>
<path d="M41.3148 26.4415L37.559 26.4414L37.559 33.9531L41.3148 33.9532V26.4415Z" fill="#FF0037"/>
<path d="M15.0235 22.6855H3.75591V26.4414H15.0235V22.6855Z" fill="#FF0037"/>
<path d="M7.51178 37.7091H3.75591V41.465H7.51178V37.7091Z" fill="#FF0037"/>
<path d="M3.75591 22.6855L0 22.6856V41.4649L3.75591 41.465V22.6855Z" fill="#FF0037"/>
<path d="M18.7795 30.1973H15.0236V33.9531H18.7795V30.1973Z" fill="#FF0037"/>
<path d="M15.0236 33.9531L11.2677 33.9532V37.709H15.0236L15.0236 33.9531Z" fill="#FF0037"/>
<path d="M18.7795 26.4415L15.0235 26.4414L15.0236 30.1973H18.7795V26.4415Z" fill="#FF0037"/>
<path d="M11.2677 37.709L7.51178 37.7091V41.465H11.2677L11.2677 37.709Z" fill="#FF0037"/>
<g style="mix-blend-mode:difference">
<path d="M7.51178 0H3.75591V3.75587H7.51178V0Z" fill="white"/>
<path d="M3.75591 0H0V3.75587H3.75591V0Z" fill="white"/>
<path d="M11.2677 0H7.51178V3.75587H11.2677V0Z" fill="white"/>
<path d="M15.0236 0H11.2677V3.75587H15.0236V0Z" fill="white"/>
<path d="M7.51178 15.0236H3.75591V18.7795H7.51178V15.0236Z" fill="white"/>
<path d="M3.75587 7.51182H0V18.7794L3.75591 18.7795L3.75587 7.51182Z" fill="white"/>
<path d="M18.7795 3.75591L15.0236 3.75587L15.0236 7.51178H18.7795V3.75591Z" fill="white"/>
<path d="M18.7795 11.2677H15.0236V15.0236H18.7795V11.2677Z" fill="white"/>
<path d="M18.7795 7.51178H15.0236V11.2677H18.7795V7.51178Z" fill="white"/>
<path d="M15.0236 15.0236L11.2677 15.0236V18.7795H15.0236L15.0236 15.0236Z" fill="white"/>
<path d="M15.0236 3.75587H11.2677L11.2677 7.51178H15.0236L15.0236 3.75587Z" fill="white"/>
<path d="M11.2677 15.0236H7.51178V18.7795H11.2677V15.0236Z" fill="white"/>
<path d="M33.8032 11.2677H30.0473V15.0236H33.8032V11.2677Z" fill="white"/>
<path d="M37.5589 11.2677H33.8032V15.0236H37.5589V11.2677Z" fill="white"/>
<path d="M30.0473 11.2677H26.2914V15.0236H30.0473V11.2677Z" fill="white"/>
<path d="M26.2913 7.51182H22.5355V11.2677L26.2914 11.2677L26.2913 7.51182Z" fill="white"/>
<path d="M30.0473 3.75591H26.2914L26.2913 7.51182L30.0473 7.51178V3.75591Z" fill="white"/>
<path d="M41.3148 0H37.5589V18.7793H41.3148V0Z" fill="white"/>
<path d="M33.8032 0H30.0473L30.0473 3.75591L33.8032 3.75587V0Z" fill="white"/>
</g>
</g>
<defs>
<clipPath id="clip0_1004_1315">
<rect width="41.3148" height="64" fill="white"/>
</clipPath>
</defs>
</svg>
