<svg width="53" height="24" viewBox="0 0 53 24" fill="none" xmlns="http://www.w3.org/2000/svg">
<g style="mix-blend-mode:difference">
<path d="M9.48856 0H4.74431V4.74425H9.48856V0Z" fill="white"/>
<path d="M4.74431 0H0V4.74425H4.74431V0Z" fill="white"/>
<path d="M14.2329 0H9.48856V4.74425H14.2329V0Z" fill="white"/>
<path d="M18.9772 0H14.2329V4.74425H18.9772V0Z" fill="white"/>
<path d="M9.48856 18.9772H4.74431V23.7215H9.48856V18.9772Z" fill="white"/>
<path d="M4.74425 9.48862H0V23.7214L4.74431 23.7215L4.74425 9.48862Z" fill="white"/>
<path d="M23.7215 4.74431L18.9772 4.74425L18.9772 9.48856H23.7215V4.74431Z" fill="white"/>
<path d="M23.7215 14.2329H18.9772V18.9772H23.7215V14.2329Z" fill="white"/>
<path d="M23.7215 9.48856H18.9772V14.2329H23.7215V9.48856Z" fill="white"/>
<path d="M18.9772 18.9772L14.2329 18.9772V23.7215H18.9772L18.9772 18.9772Z" fill="white"/>
<path d="M18.9772 4.74425H14.2329L14.2329 9.48856H18.9772L18.9772 4.74425Z" fill="white"/>
<path d="M14.2329 18.9772H9.48856V23.7215H14.2329V18.9772Z" fill="white"/>
<path d="M42.6987 14.2329H37.9545V18.9772H42.6987V14.2329Z" fill="white"/>
<path d="M47.4428 14.2329H42.6987V18.9772H47.4428V14.2329Z" fill="white"/>
<path d="M37.9545 14.2329H33.2102V18.9772H37.9545V14.2329Z" fill="white"/>
<path d="M33.2101 9.48862H28.4659V14.2329L33.2102 14.2329L33.2101 9.48862Z" fill="white"/>
<path d="M37.9544 4.74431H33.2102L33.2101 9.48862L37.9544 9.48856V4.74431Z" fill="white"/>
<path d="M52.1871 0H47.4428V23.7213H52.1871V0Z" fill="white"/>
<path d="M42.6987 0H37.9545L37.9544 4.74431L42.6987 4.74425V0Z" fill="white"/>
</g>
</svg>
