<svg width="32" height="32" viewBox="0 0 32 32" fill="none" xmlns="http://www.w3.org/2000/svg">
<path d="M29.1002 8.72759H26.19V11.6368H29.1002V8.72759Z" fill="black"/>
<path d="M23.246 8.72759H14.5815V11.6368H23.246V8.72759Z" fill="black"/>
<path d="M14.5804 0H5.85776V2.9092H14.5804V0Z" fill="black"/>
<path d="M29.0909 20.3644H14.5815V23.2736H29.0909V20.3644Z" fill="black"/>
<path d="M11.6352 23.2724H8.73076V26.1816H11.6352V23.2724Z" fill="black"/>
<path d="M2.90444 0H0V2.9092H2.90444V0Z" fill="black"/>
<path d="M14.5804 17.4552H8.76802V20.3644H14.5815L14.5804 17.4552Z" fill="black"/>
<path d="M5.81818 17.4552H2.90792V20.3644H5.81818V17.4552Z" fill="black"/>
<path d="M23.2471 26.1816H11.6387V29.0908H23.2471V26.1816Z" fill="black"/>
<path d="M11.6352 29.0908H0.00698433V32H11.6352V29.0908Z" fill="black"/>
<path d="M14.5815 11.6368H0.00698433V14.546H14.5815V11.6368Z" fill="black"/>
<path d="M11.5642 5.81723H2.90444V8.72643H11.5642V5.81723Z" fill="black"/>
<path d="M32 14.546H18.3882V17.4552H32V14.546Z" fill="black"/>
<path d="M23.2797 2.90803H14.5746V5.81723H23.2797V2.90803Z" fill="black"/>
<path d="M5.79723 23.2736H0V26.1828H5.79723V23.2736Z" fill="black"/>
</svg>
