<svg width="64" height="64" viewBox="0 0 64 64" fill="none" xmlns="http://www.w3.org/2000/svg">
<path d="M29.0909 34.9139H23.2727V40.732H29.0909V34.9139Z" fill="black"/>
<path d="M17.4545 58.1818H11.6364V64H17.4545V58.1818Z" fill="black"/>
<path d="M17.4545 52.3636H11.6364V58.1818H17.4545V52.3636Z" fill="black"/>
<path d="M17.4545 46.5455H11.6364V52.3636H17.4545V46.5455Z" fill="black"/>
<path d="M23.2727 34.9091H0V40.7273H23.2727V34.9091Z" fill="black"/>
<path d="M52.3636 52.3636H46.5455V58.1818H52.3636V52.3636Z" fill="black"/>
<path d="M58.1818 52.3636H52.3636V58.1818H58.1818V52.3636Z" fill="black"/>
<path d="M64 52.3636H58.1818V58.1818H64V52.3636Z" fill="black"/>
<path d="M64 58.1818H58.1818V64H64V58.1818Z" fill="black"/>
<path d="M40.7273 58.1818H34.9091V64H40.7273V58.1818Z" fill="black"/>
<path d="M46.5455 52.3636H40.7273V58.1818H46.5455V52.3636Z" fill="black"/>
<path d="M40.7273 52.3636H34.9091V58.1818H40.7273V52.3636Z" fill="black"/>
<path d="M46.5455 46.5455H40.7273V52.3636H46.5455V46.5455Z" fill="black"/>
<path d="M58.1818 46.5455H52.3636V52.3636H58.1818V46.5455Z" fill="black"/>
<path d="M46.5455 40.7273H40.7273V46.5455H46.5455V40.7273Z" fill="black"/>
<path d="M52.3636 34.9091H46.5455V40.7273H52.3636V34.9091Z" fill="black"/>
<path d="M58.1818 40.7273H52.3636V46.5455H58.1818V40.7273Z" fill="black"/>
<path d="M58.1818 0H40.7273V5.81818H58.1818V0Z" fill="black"/>
<path d="M40.7273 23.2727H34.9091V29.0909H40.7273V23.2727Z" fill="black"/>
<path d="M58.1818 11.6364H46.5455V17.4545H58.1818V11.6364Z" fill="black"/>
<path d="M40.7273 5.81818H34.9091V11.6364H40.7273V5.81818Z" fill="black"/>
<path d="M40.7273 11.6364H34.9091V17.4545H40.7273V11.6364Z" fill="black"/>
<path d="M46.5455 17.4545H40.7273V23.2727H46.5455V17.4545Z" fill="black"/>
<path d="M40.7273 17.4545H34.9091V23.2727H40.7273V17.4545Z" fill="black"/>
<path d="M64 17.4545H58.1818V29.0909H64V17.4545Z" fill="black"/>
<path d="M64 5.81818H58.1818V17.4545H64V5.81818Z" fill="black"/>
<path d="M23.2727 0H5.81818V5.81818H23.2727V0Z" fill="black"/>
<path d="M11.6364 23.2727H5.81818V29.0909H11.6364V23.2727Z" fill="black"/>
<path d="M5.81818 0H0V29.0909L5.81818 29.0909V0Z" fill="black"/>
<path d="M29.0909 11.6364H23.2727V17.4545H29.0909V11.6364Z" fill="black"/>
<path d="M23.2727 17.4545H17.4545V23.2727H23.2727V17.4545Z" fill="black"/>
<path d="M29.0909 5.81818H23.2727V11.6364H29.0909V5.81818Z" fill="black"/>
<path d="M17.4545 23.2727H11.6364V29.0909H17.4545V23.2727Z" fill="black"/>
</svg>
