<svg width="25" height="24" viewBox="0 0 25 24" fill="none" xmlns="http://www.w3.org/2000/svg">
<path d="M2.43078 21.8192H0.25L0.25 24H2.43078L2.43078 21.8192Z" fill="#1C1B1B"/>
<path d="M4.61156 19.6384H2.43078L2.43078 21.8192H4.61156V19.6384Z" fill="#1C1B1B"/>
<path d="M6.79234 17.452H4.61156L4.61156 19.6327H6.79234L6.79234 17.452Z" fill="#1C1B1B"/>
<path d="M8.97883 15.2712H6.79805V17.452H8.97883L8.97883 15.2712Z" fill="#1C1B1B"/>
<path d="M11.1596 13.0904H8.97883V15.2712H11.1596V13.0904Z" fill="#1C1B1B"/>
<path d="M13.3404 10.9096H11.1596V13.0904H13.3404V10.9096Z" fill="#1C1B1B"/>
<path d="M15.5212 8.72883H13.3404V10.9096H15.5212V8.72883Z" fill="#1C1B1B"/>
<path d="M17.702 6.54805H15.5212V8.72883L17.702 8.72883V6.54805Z" fill="#1C1B1B"/>
<path d="M19.8827 4.36156L17.702 4.36156V6.54234L19.8827 6.54234V4.36156Z" fill="#1C1B1B"/>
<path d="M22.0692 2.18078L19.8884 2.18078V4.36156H22.0692V2.18078Z" fill="#1C1B1B"/>
<path d="M24.25 0L22.0692 0V2.18078L24.25 2.18078V0Z" fill="#1C1B1B"/>
<path d="M8.97883 19.6384H6.79805V21.8192H8.97883V19.6384Z" fill="#1C1B1B"/>
<path d="M4.61156 15.2712H2.43078V17.452H4.61156V15.2712Z" fill="#1C1B1B"/>
</svg>
