<svg width="100" height="24" viewBox="0 0 100 24" fill="none" xmlns="http://www.w3.org/2000/svg">
<line y1="11.5" x2="68" y2="11.5" stroke="#F1F1F1"/>
<g style="mix-blend-mode:difference">
<path d="M98 5.80021C97.2483 6.1263 96.4534 6.34187 95.64 6.44021C96.4982 5.92753 97.1413 5.12099 97.45 4.17021C96.6436 4.65027 95.7608 4.98851 94.84 5.17021C94.2245 4.50278 93.405 4.05851 92.5098 3.90706C91.6147 3.75562 90.6945 3.90557 89.8938 4.3334C89.093 4.76123 88.4569 5.44274 88.0852 6.27105C87.7135 7.09935 87.6273 8.0276 87.84 8.91021C86.2094 8.82774 84.6144 8.40316 83.1587 7.66407C81.7029 6.92498 80.4188 5.8879 79.39 4.62021C79.0291 5.25038 78.8395 5.96403 78.84 6.69021C78.8387 7.36459 79.0042 8.02883 79.3218 8.62377C79.6393 9.21872 80.099 9.72592 80.66 10.1002C80.008 10.0825 79.3699 9.90751 78.8 9.59021V9.64021C78.8049 10.5851 79.136 11.4993 79.7373 12.2282C80.3386 12.957 81.1733 13.4559 82.1 13.6402C81.7433 13.7488 81.3729 13.806 81 13.8102C80.7419 13.8072 80.4844 13.7838 80.23 13.7402C80.4939 14.553 81.0046 15.2634 81.6911 15.7724C82.3775 16.2814 83.2056 16.5638 84.06 16.5802C82.6172 17.7155 80.8359 18.3351 79 18.3402C78.6657 18.3413 78.3317 18.3213 78 18.2802C79.8744 19.4905 82.0588 20.1329 84.29 20.1302C85.8297 20.1462 87.3571 19.8552 88.7831 19.2743C90.2091 18.6934 91.505 17.8341 92.5952 16.7467C93.6854 15.6593 94.548 14.3656 95.1326 12.9411C95.7172 11.5166 96.012 9.98994 96 8.45021C96 8.28021 96 8.10021 96 7.92021C96.7847 7.33502 97.4615 6.61763 98 5.80021V5.80021Z" fill="#F1F1F1"/>
</g>
</svg>
